<svg width="564" height="718" viewBox="0 0 564 718" fill="none" xmlns="http://www.w3.org/2000/svg">
<g opacity="0.4">
<path d="M658.373 256.858C657.548 256.374 650.67 252.713 648.882 251.884C635.059 245.459 619.86 241.521 603.835 240.83C574.744 237.859 547.922 238.827 520.481 214.578C508.308 203.87 487.47 175.89 482.931 160.622C479.423 148.947 478.185 120.76 478.185 119.724C478.116 53.6099 424.748 0 358.931 0C293.115 0 239.746 53.6099 239.746 119.724C239.746 120.76 238.508 148.947 235.001 160.622C230.461 175.89 209.554 203.801 197.45 214.578C170.009 238.827 143.119 237.859 114.096 240.83C98.0716 241.521 82.8038 245.39 69.049 251.884C67.2609 252.713 60.3835 256.374 59.5582 256.858C23.9333 277.583 0 316.202 0 360.485C0 426.6 53.3686 480.209 119.185 480.209C161.344 480.209 198.344 458.24 219.526 425.08C221.934 421.487 224.203 417.757 226.266 413.75C230.668 405.183 233.006 398.275 234.244 391.85C236.926 381.832 238.439 371.262 238.439 360.416C238.439 354.958 238.095 341.763 238.095 340.451C238.095 279.794 297.516 239.31 349.647 239.034C352.398 238.619 355.424 238.343 359 238.412C362.576 238.412 365.602 238.688 368.353 239.034C420.484 239.31 479.905 279.794 479.905 340.451C479.905 341.763 479.561 354.958 479.561 360.416C479.561 371.332 481.005 381.832 483.756 391.85C484.994 398.206 487.332 405.183 491.734 413.75C493.797 417.688 496.066 421.487 498.474 425.08C519.656 458.24 556.656 480.209 598.815 480.209C664.631 480.209 718 426.6 718 360.485C718 316.202 694.067 277.583 658.579 256.858H658.373Z" fill="url(#paint0_linear_4_148)"/>
<path d="M358.932 478.552C293.115 478.552 239.747 532.161 239.747 598.276C239.747 664.39 293.115 718 358.932 718C424.749 718 478.117 664.39 478.117 598.276C478.117 532.161 424.749 478.552 358.932 478.552Z" fill="url(#paint1_linear_4_148)"/>
</g>
<defs>
<linearGradient id="paint0_linear_4_148" x1="359" y1="0" x2="359" y2="718" gradientUnits="userSpaceOnUse">
<stop stop-color="#00B5D4"/>
<stop offset="1" stop-color="#3F37C9"/>
</linearGradient>
<linearGradient id="paint1_linear_4_148" x1="359" y1="0" x2="359" y2="718" gradientUnits="userSpaceOnUse">
<stop stop-color="#00B5D4"/>
<stop offset="1" stop-color="#3F37C9"/>
</linearGradient>
</defs>
</svg>
